<?xml version="1.0" encoding="UTF-8"?>
<svg id="Layer_1" data-name="Layer 1" xmlns="http://www.w3.org/2000/svg" viewBox="0 0 1920 1920">
  <defs>
    <style>
      .cls-1 {
        fill: #ea522a;
      }

      .cls-2 {
        fill: #f9f4e1;
      }

      .cls-3 {
        fill: #005156;
      }
    </style>
  </defs>
  <g>
    <path class="cls-1" d="M960,0C429.82,0,0,429.82,0,960s429.82,960,960,960,960-429.82,960-960S1490.21,0,960,0Z"/>
    <path class="cls-3" d="M1860.46,960c0,121.58-23.8,239.51-70.73,350.49-45.35,107.2-110.27,203.53-193.01,286.23-82.71,82.71-179,147.66-286.23,193.01-110.97,46.93-228.87,70.73-350.49,70.73s-239.48-23.8-350.46-70.73c-107.23-45.35-203.53-110.3-286.26-193.01-82.71-82.71-147.63-179.03-192.98-286.23-46.96-110.97-70.76-228.91-70.76-350.49s23.8-239.51,70.76-350.49c45.35-107.2,110.27-203.53,192.98-286.23,82.73-82.71,179.03-147.66,286.26-193.01,110.97-46.93,228.88-70.73,350.46-70.73s239.51,23.8,350.49,70.73c107.23,45.35,203.53,110.3,286.23,193.01,82.73,82.71,147.66,179.03,193.01,286.23,46.93,110.97,70.73,228.91,70.73,350.49Z"/>
  </g>
  <g>
    <path class="cls-2" d="M305.28,795.83c-14.27,119.86-14.27,225.91,0,318.15h-90.58c4.85-52.8,7.28-105.74,7.28-158.85s-2.43-106.2-7.28-159.3h90.58Z"/>
    <path class="cls-2" d="M535.13,1114.44h-80.56c4.85-10.62,7.28-40.28,7.28-88.98s-1.98-76.69-5.92-83.98c-2.73-5.46-5.01-9.25-6.83-11.38-8.5-10.01-17.91-10.01-28.22,0-1.52,1.22-3.8,5.01-6.83,11.38-3.95,7.28-5.92,35.27-5.92,83.98s2.58,78.37,7.74,88.98h-90.12c4.85-38.53,7.28-77.07,7.28-115.61s-2.43-77.07-7.28-115.61h59.17c-.31,1.52-.61,3.42-.91,5.69-.31,2.28-.46,3.87-.46,4.78,7.89-4.55,15.78-7.89,23.67-10.01.3-.3.6-.46.91-.46,11.22-3.03,22.91-4.55,35.05-4.55h1.82c12.44,0,24.12,1.52,35.05,4.55.3,0,.6.16.91.46,13.04,3.34,22.45,8.42,28.22,15.25,5.76,6.83,10.31,16.46,13.66,28.9,3.03,10.32,5.01,39.83,5.92,88.53.91,48.7,3.03,81.4,6.37,98.08Z"/>
    <path class="cls-2" d="M617.96,811.53c21.54-14.71,44.98-22.08,70.32-22.08s48.7,7.36,70.09,22.08c21.39,14.72,38.38,34.82,50.98,60.31,12.59,25.49,18.89,53.25,18.89,83.29s-6.3,57.8-18.89,83.29c-12.59,25.49-29.58,45.6-50.98,60.31-21.39,14.72-44.76,22.08-70.09,22.08s-48.78-7.35-70.32-22.08c-21.55-14.71-38.54-34.82-50.98-60.31-12.44-25.49-18.66-53.25-18.66-83.29s6.22-57.8,18.66-83.29c12.44-25.49,29.43-45.59,50.98-60.31ZM647.77,1040.93c11.38,23.82,25.1,35.73,41.19,35.73s29.73-11.9,40.96-35.73c11.22-23.82,16.84-52.41,16.84-85.8,0-22.15-2.58-42.56-7.74-61.22-5.16-18.66-12.22-33.37-21.16-44.15-8.96-10.77-18.59-16.16-28.9-16.16-16.09,0-29.81,11.83-41.19,35.5-11.38,23.67-17.07,52.27-17.07,85.8s5.69,62.21,17.07,86.02Z"/>
    <path class="cls-2" d="M1031.24,904.61l-51.89,27.76c-.61-1.51-1.21-2.57-1.82-3.19-5.16-6.07-13.35-9.1-24.58-9.1s-19.27,3.04-24.12,9.1c-1.82,2.43-4.1,6.22-6.83,11.38-4.25,7.59-6.3,35.81-6.14,84.66.15,48.86,2.65,78.59,7.51,89.21h-79.65c9.4-77.07,9.4-154.14,0-231.22h53.25c-.31,2.13-.68,4.94-1.14,8.42-.45,3.49-.68,5.54-.68,6.14,3.34-2.43,5.46-3.94,6.37-4.55,6.67-3.94,14.56-7.13,23.67-9.56.3-.3.6-.46.91-.46,10.92-3.03,22.6-4.55,35.05-4.55h1.82c12.13,0,23.82,1.52,35.05,4.55.3,0,.6.16.91.46,15.17,3.95,25.94,10.92,32.32,20.94Z"/>
    <path class="cls-2" d="M1114.98,883.68c17.3,0,33,1.37,47.11,4.1,14.11,2.73,26.01,6.45,35.73,11.15,9.71,4.71,18.13,10.62,25.26,17.75,7.13,7.13,12.74,14.34,16.84,21.62,4.1,7.28,7.35,15.63,9.79,25.03,2.43,9.41,4.1,18.21,5.01,26.4.91,8.19,1.37,17.3,1.37,27.31-.91,10.63-2.73,20.41-5.46,29.36-2.73,8.95-6.07,16.54-10.02,22.76-3.95,6.22-8.5,11.91-13.65,17.07-5.16,5.16-10.63,9.26-16.39,12.29-5.77,3.04-11.76,5.69-17.98,7.97-6.22,2.28-12.37,3.87-18.43,4.78-6.07.91-12.06,1.75-17.98,2.5-5.92.75-11.46.98-16.61.68-5.16-.3-9.86-.3-14.11,0h-86.94c9.4-106.2,9.4-212.4,0-318.61h79.65c-.31,10.01-.99,24.89-2.05,44.6-1.07,19.73-1.75,34.14-2.05,43.24h.91ZM1114.52,1074.84c1.51,0,3.26.08,5.24.23,1.97.16,5.16-.07,9.56-.68,4.4-.6,8.65-1.59,12.74-2.96,4.1-1.37,8.57-3.79,13.43-7.28,4.85-3.49,9.1-7.74,12.74-12.74,3.64-5.01,6.67-11.68,9.1-20.03,2.43-8.34,3.79-17.82,4.1-28.45,0-12.44-1.14-23.51-3.41-33.23-2.28-9.71-5.39-17.22-9.33-22.53-3.95-5.31-8.27-9.71-12.97-13.2-4.71-3.49-9.49-5.76-14.33-6.83-4.86-1.06-9.26-1.74-13.2-2.05-3.95-.3-7.13-.15-9.56.46l-3.64.45-.91,144.74c0,.31.07.68.23,1.14.15.45.23.91.23,1.36v1.59Z"/>
    <path class="cls-2" d="M1436.31,883.22h66.45c-31.25,78.59-61.15,152.78-89.66,222.57l-13.2,36.41c0,.3-.16.75-.45,1.36l-.45.91c-1.52,3.94-2.43,6.37-2.73,7.28-.91,1.51-2.13,3.79-3.64,6.83-7.59,13.65-18.51,24.27-32.77,31.86-17.3,8.8-35.2,11.98-53.71,9.56-11.54-1.52-22.46-5.01-32.77-10.47-5.46-3.34-10.17-6.68-14.11-10.01l-10.92-9.1,37.32-39.14c5.76,6.67,13.5,10.02,23.21,10.02,15.48-1.52,25.79-6.68,30.95-15.48,1.21-2.13,2.73-5.92,4.55-11.38.6-3.03.15-7.74-1.37-14.11-5.16-19.42-10.47-36.71-15.93-51.89-5.46-15.17-11.83-29.88-19.12-44.15-7.28-14.26-13.5-25.94-18.66-35.05-5.16-9.1-13.28-22.68-24.35-40.74-11.08-18.05-20.1-33.15-27.08-45.29h96.04c-.31.31-.61.76-.91,1.37-.31.61-.99,1.75-2.05,3.41-1.07,1.67-1.82,3.41-2.28,5.24-.45,1.82-.84,4.17-1.14,7.05-.31,2.89.15,5.69,1.36,8.42l52.34,113.33,36.41-106.05h.45c.91-2.73,1.66-5.31,2.28-7.74.6-2.42.83-4.7.68-6.83-.16-2.12-.38-4.17-.68-6.14-.31-1.97-.76-3.64-1.37-5.01-.61-1.37-1.14-2.57-1.59-3.64-.46-1.06-.84-1.89-1.14-2.5l-.91-.91h20.94Z"/>
    <path class="cls-2" d="M1665.7,1058.91l39.6,39.14h-.45c-3.95,3.64-8.65,6.98-14.11,10.02-10.32,5.46-21.24,8.95-32.77,10.47-9.41.91-20.18.53-32.31-1.14-12.14-1.67-22.15-4.62-30.04-8.88-11.54-5.76-22.46-18.35-32.77-37.78-1.22-1.82-2.43-4.1-3.64-6.83-.31-.6-.76-1.74-1.36-3.41-.61-1.66-1.07-2.8-1.37-3.41-4.55-11.53-6.83-24.12-6.83-37.78v-44.38c0-27.76.15-43.92.45-48.47h-25.94v-42.78h26.85l1.36-87.84h67.82c0,46.13-.31,75.41-.91,87.84h56.9v42.78h-56.9c.3,8.5.38,19.96.23,34.36-.16,14.42-.16,29.06,0,43.92.15,14.87.53,23.06,1.14,24.58,2.73,8.5,4.7,13.81,5.92,15.93,3.34,5.77,7.2,9.64,11.61,11.61,4.4,1.98,9.94,3.26,16.61,3.87,4.25,0,7.88-.6,10.92-1.82Z"/>
  </g>
</svg>