<?xml version="1.0" encoding="UTF-8"?>
<svg id="Layer_1" data-name="Layer 1" xmlns="http://www.w3.org/2000/svg" viewBox="0 0 1920 1132.27">
  <defs>
    <style>
      .cls-1 {
        fill: #ea522a;
      }

      .cls-2 {
        fill: #f9f4e1;
      }

      .cls-3 {
        fill: #005156;
      }
    </style>
  </defs>
  <path class="cls-1" d="M1898.72,664.63l-47.2-46.66c-9.55-9.44-21.3-15.79-33.83-18.76-.05-5.56-.08-11.11-.09-16.65,37.72-2.05,67.68-33.29,67.68-71.53v-51c0-37.93-29.48-68.98-66.79-71.47.03-10.13.05-21.2.05-33.24,0-39.56-32.07-71.63-71.63-71.63h-80.84c-39.13,0-71.02,31.4-71.62,70.52l-.52,33.64h-91.14c-18.37,0-35.59,7.01-48.56,18.97-2.92-2.69-6.07-5.12-9.38-7.29-26.75-87.32-74.61-167.33-141.02-233.74C1196.89,58.88,1054.72,0,903.5,0s-293.39,58.88-400.32,165.81c-62.29,62.29-108.24,136.55-135.78,217.57-6.99-.62-14.08-.94-21.26-.94h-2.17c-19.07,0-37.84,2.26-55.88,6.72-4.43-.86-8.97-1.3-13.56-1.3h-26.52c.85-7.97,1.75-15.99,2.71-24.06,2.42-20.33-3.98-40.72-17.57-56.03-13.59-15.31-33.09-24.07-53.56-24.07h-107.96c-20.13,0-39.33,8.47-52.91,23.34-13.57,14.87-20.26,34.76-18.43,54.81,5.56,60.91,8.38,122.6,8.38,183.37s-2.82,122.25-8.38,182.79c-1.84,20.05,4.84,39.96,18.41,54.83,13.57,14.88,32.78,23.35,52.92,23.35h107.96c3.59,0,7.15-.29,10.65-.81,4.5.88,9.1,1.36,13.76,1.36h107.42c7.96,0,15.73-1.32,23.06-3.81,7.33,2.49,15.1,3.81,23.06,3.81h33.19c27.54,58.59,65.32,112.58,112.46,159.72,106.93,106.93,249.1,165.81,400.32,165.81s293.39-58.88,400.32-165.81c18.79-18.79,36.06-38.68,51.82-59.5,2.53.44,5.07.84,7.63,1.18,7.95,1.04,15.85,1.56,23.69,1.56,28.25,0,55.78-6.74,82.11-20.13.39-.2.78-.4,1.17-.61,29.32-15.6,52.21-37.94,68.03-66.41.52-.94,1.02-1.88,1.5-2.84,1.08-2.17,1.64-3.2,1.79-3.47,2.55-4.28,4.64-8.82,6.25-13.53.27-.75.68-1.85,1.24-3.28,1.46-3.19,2.69-6.43,3.7-9.7l14.19-39.14c10.21-24.98,20.59-50.5,31.11-76.48,1.76,6.46,3.85,12.8,6.29,18.98.31.79.63,1.57.97,2.34l.04.12c1.37,3.76,2.57,6.73,3.86,9.48,2.33,5.16,4.79,9.84,7.46,14.2,19.09,35.11,41.33,58.83,67.9,72.43,16.91,8.96,36.26,14.84,59.13,17.99,12.67,1.74,24.49,2.6,35.71,2.6,6.68,0,13.14-.31,19.44-.92.83-.08,1.65-.17,2.47-.28,22.16-2.92,43.42-9.71,63.2-20.18.42-.22.83-.44,1.24-.67,8.49-4.71,16.36-9.99,23.49-15.75,11.09-7.71,20.02-18.56,25.38-31.6,11.04-26.87,4.76-57.75-15.9-78.17Z"/>
  <path class="cls-3" d="M1879.84,683.74l-47.2-46.66c-10.85-10.73-26.26-15.06-40.86-11.94-.14-.42-.29-.86-.44-1.33-.15-2.87-.36-8.71-.47-19.92-.17-16.17-.18-32.32-.03-48.07h22.81c24.73,0,44.77-20.04,44.77-44.77v-51c0-24.73-20.05-44.77-44.77-44.77h-22.16c.13-16.3.2-36.23.2-59.94s-20.05-44.77-44.77-44.77h-80.84c-24.45,0-44.39,19.62-44.77,44.07l-.96,62.14c-4.28-1.34-8.79-2.05-13.4-2.05h-104.16c-18.1,0-34.42,10.9-41.36,27.62-5.41,13.04-4.28,27.61,2.54,39.47-.29.72-.56,1.46-.82,2.2l-7.18,20.91-11.04-23.91c6.43-11.72,7.38-25.96,2.08-38.71-6.11-14.69-19.46-24.87-34.89-27.11-24.74-83.78-70.12-160.56-133.62-224.06-100.16-100.18-233.34-155.34-375-155.34s-274.82,55.16-374.98,155.34c-63.48,63.47-108.85,140.2-133.6,223.94-15.45-3.82-31.82-5.78-48.77-5.78h-2.17c-17.62,0-34.93,2.17-51.48,6.45-1.43.31-2.85.68-4.24,1.13-4.39-1.41-9.01-2.15-13.73-2.15h-56.14c1.6-17.77,3.49-35.81,5.66-54.1,1.51-12.71-2.49-25.45-10.98-35.02-8.5-9.57-20.68-15.04-33.48-15.04h-107.96c-12.58,0-24.58,5.29-33.07,14.59-8.48,9.29-12.66,21.73-11.52,34.26,5.64,61.72,8.5,124.23,8.5,185.81s-2.86,123.9-8.49,185.24c-1.15,12.53,3.03,24.97,11.51,34.27,8.48,9.3,20.49,14.6,33.07,14.6h107.96c3.84,0,7.61-.5,11.25-1.45,4.22,1.3,8.65,1.99,13.16,1.99h107.42c8.25,0,16.2-2.28,23.06-6.39,6.86,4.12,14.8,6.39,23.06,6.39h60.33c26.16,59.38,63.39,113.99,110.65,161.25,100.16,100.16,233.33,155.32,374.98,155.32s274.84-55.16,375-155.32c20.98-20.98,39.95-43.42,56.88-67.06,10.15,3.5,20.62,6.01,31.37,7.43,6.74.88,13.43,1.32,20.09,1.32,24.06,0,47.54-5.76,70.04-17.2.25-.13.49-.25.73-.38,24.67-13.13,43.9-31.88,57.16-55.75.33-.58.64-1.18.94-1.77,1.86-3.73,2.62-5.01,2.65-5.06,1.67-2.78,3.03-5.73,4.07-8.81.1-.27.55-1.53,1.86-4.95,1.18-2.49,2.15-5.02,2.9-7.56l14.66-40.43c24.42-59.77,49.83-122.6,75.85-187.58.12.04.24.1.36.14,0,4.62-.01,9.73-.01,15.37v52.9c0,21.86,3.79,42.54,11.26,61.47.27.68.56,1.36.86,2.03.11.27.23.6.36.96,1.13,3.1,2.08,5.45,3.05,7.53,2,4.44,4.08,8.4,6.33,12,16.54,30.63,35.22,50.95,57.04,62.07,14.13,7.51,30.61,12.49,50.38,15.21,11.34,1.55,22.12,2.33,32.21,2.33,5.8,0,11.38-.26,16.7-.77.51-.05,1.03-.11,1.54-.18,18.99-2.51,37.21-8.32,54.15-17.29.26-.14.52-.28.77-.42,7.47-4.14,14.32-8.77,20.44-13.81,7.28-4.84,13.14-11.82,16.61-20.26,6.9-16.79,2.97-36.09-9.94-48.85ZM1630.55,686.03c-.07-.15-.15-.31-.23-.49.08.16.15.33.23.49h0Z"/>
  <g>
    <path class="cls-2" d="M179.6,355.35c-17.01,142.87-17.01,269.28,0,379.22h-107.96c5.78-62.93,8.68-126.04,8.68-189.34s-2.9-126.59-8.68-189.88h107.96Z"/>
    <path class="cls-2" d="M453.57,735.12h-96.03c5.78-12.65,8.68-48.01,8.68-106.06s-2.36-91.41-7.05-100.1c-3.26-6.51-5.97-11.03-8.14-13.56-10.13-11.94-21.35-11.94-33.64,0-1.81,1.45-4.53,5.97-8.14,13.56-4.7,8.68-7.05,42.05-7.05,100.1s3.07,93.41,9.22,106.06h-107.42c5.78-45.93,8.68-91.86,8.68-137.8s-2.9-91.86-8.68-137.8h70.53c-.36,1.82-.73,4.07-1.08,6.78-.37,2.71-.55,4.61-.55,5.7,9.4-5.42,18.8-9.4,28.21-11.94.36-.36.72-.54,1.08-.54,13.38-3.61,27.31-5.42,41.78-5.42h2.17c14.83,0,28.75,1.82,41.77,5.42.36,0,.72.19,1.09.54,15.54,3.98,26.76,10.04,33.63,18.17,6.87,8.14,12.29,19.62,16.28,34.45,3.61,12.3,5.97,47.47,7.05,105.52,1.08,58.05,3.61,97.03,7.59,116.91Z"/>
    <path class="cls-2" d="M552.3,374.07c25.68-17.54,53.62-26.31,83.82-26.31s58.05,8.77,83.55,26.31c25.5,17.55,45.75,41.5,60.76,71.88,15.01,30.38,22.51,63.47,22.51,99.28s-7.51,68.9-22.51,99.28c-15.01,30.38-35.26,54.35-60.76,71.88-25.5,17.55-53.35,26.31-83.55,26.31s-58.15-8.77-83.82-26.31c-25.68-17.54-45.94-41.5-60.76-71.88-14.83-30.38-22.24-63.47-22.24-99.28s7.41-68.9,22.24-99.28c14.83-30.38,35.08-54.34,60.76-71.88ZM587.84,647.5c13.56,28.4,29.92,42.59,49.1,42.59s35.44-14.19,48.83-42.59c13.38-28.39,20.07-62.47,20.07-102.26,0-26.4-3.08-50.73-9.22-72.97-6.15-22.24-14.56-39.78-25.23-52.62-10.68-12.83-22.16-19.26-34.45-19.26-19.17,0-35.53,14.1-49.1,42.32-13.56,28.21-20.34,62.3-20.34,102.27s6.78,74.15,20.34,102.54Z"/>
    <path class="cls-2" d="M1044.91,485.01l-61.85,33.09c-.73-1.8-1.45-3.07-2.17-3.8-6.15-7.23-15.92-10.85-29.3-10.85s-22.97,3.62-28.75,10.85c-2.17,2.9-4.88,7.42-8.14,13.56-5.07,9.05-7.51,42.68-7.32,100.91.18,58.24,3.16,93.68,8.95,106.33h-94.94c11.21-91.86,11.21-183.73,0-275.6h63.48c-.36,2.54-.81,5.88-1.36,10.04-.54,4.16-.81,6.6-.81,7.32,3.98-2.89,6.51-4.7,7.6-5.42,7.95-4.7,17.36-8.5,28.21-11.39.35-.36.72-.54,1.08-.54,13.02-3.61,26.94-5.42,41.77-5.42h2.17c14.46,0,28.39,1.82,41.77,5.42.36,0,.72.19,1.08.54,18.08,4.7,30.92,13.02,38.52,24.96Z"/>
    <path class="cls-2" d="M1144.72,460.06c20.62,0,39.34,1.63,56.15,4.88,16.82,3.25,31.01,7.69,42.59,13.29,11.57,5.61,21.61,12.66,30.11,21.16,8.5,8.5,15.19,17.09,20.07,25.77,4.88,8.68,8.77,18.63,11.66,29.84,2.89,11.22,4.88,21.7,5.97,31.47,1.09,9.76,1.63,20.62,1.63,32.55-1.08,12.67-3.26,24.33-6.51,34.99-3.26,10.67-7.24,19.72-11.94,27.13-4.7,7.42-10.13,14.2-16.27,20.34-6.16,6.15-12.67,11.04-19.53,14.65-6.88,3.62-14.02,6.78-21.43,9.49-7.42,2.71-14.74,4.61-21.97,5.7-7.24,1.09-14.38,2.09-21.43,2.98-7.05.9-13.66,1.17-19.8.81-6.15-.36-11.76-.36-16.82,0h-103.62c11.21-126.59,11.21-253.17,0-379.77h94.94c-.36,11.94-1.18,29.66-2.44,53.17-1.27,23.52-2.08,40.69-2.44,51.54h1.08ZM1144.18,687.92c1.8,0,3.88.09,6.24.27,2.35.19,6.15-.09,11.39-.81,5.24-.72,10.31-1.9,15.19-3.53,4.88-1.63,10.22-4.52,16.01-8.68,5.78-4.16,10.85-9.22,15.19-15.19,4.34-5.97,7.95-13.92,10.85-23.87,2.89-9.94,4.52-21.24,4.88-33.91,0-14.83-1.36-28.03-4.07-39.6-2.71-11.57-6.43-20.52-11.12-26.86-4.7-6.32-9.86-11.57-15.46-15.73-5.61-4.16-11.31-6.87-17.09-8.14-5.79-1.26-11.04-2.08-15.74-2.44-4.7-.36-8.5-.18-11.39.54l-4.34.54-1.08,172.52c0,.36.08.81.27,1.36.18.54.27,1.08.27,1.63v1.9Z"/>
    <path class="cls-2" d="M1527.74,459.51h79.21c-37.25,93.68-72.89,182.11-106.88,265.29l-15.73,43.4c0,.36-.19.9-.54,1.63l-.54,1.09c-1.82,4.7-2.9,7.6-3.26,8.68-1.08,1.8-2.54,4.52-4.34,8.14-9.05,16.27-22.06,28.93-39.06,37.97-20.62,10.49-41.96,14.28-64.02,11.39-13.75-1.81-26.77-5.97-39.06-12.48-6.51-3.98-12.12-7.96-16.82-11.93l-13.02-10.85,44.49-46.66c6.87,7.95,16.09,11.94,27.67,11.94,18.45-1.82,30.74-7.96,36.89-18.45,1.44-2.54,3.25-7.05,5.42-13.56.72-3.61.18-9.22-1.63-16.82-6.15-23.14-12.48-43.76-18.99-61.85-6.51-18.08-14.11-35.62-22.79-52.62-8.68-17-16.1-30.92-22.24-41.77-6.16-10.85-15.83-27.03-29.03-48.56-13.21-21.51-23.96-39.51-32.28-53.98h114.47c-.36.37-.73.91-1.08,1.63-.36.73-1.18,2.08-2.44,4.07-1.27,1.99-2.17,4.07-2.71,6.24-.54,2.17-1,4.97-1.35,8.41-.37,3.44.18,6.78,1.63,10.04l62.39,135.09,43.4-126.41h.54c1.08-3.25,1.98-6.32,2.71-9.22.72-2.89.99-5.6.81-8.14-.19-2.53-.45-4.97-.81-7.32-.36-2.35-.91-4.34-1.63-5.97-.73-1.63-1.35-3.07-1.9-4.34-.55-1.26-1-2.26-1.36-2.99l-1.08-1.09h24.96Z"/>
    <path class="cls-2" d="M1801.16,668.93l47.2,46.66h-.54c-4.7,4.34-10.31,8.32-16.82,11.94-12.3,6.51-25.32,10.66-39.06,12.48-11.21,1.09-24.06.63-38.52-1.36-14.47-1.99-26.41-5.51-35.81-10.58-13.75-6.87-26.77-21.88-39.06-45.03-1.45-2.17-2.9-4.88-4.34-8.14-.36-.72-.91-2.08-1.63-4.07-.73-1.98-1.27-3.34-1.63-4.07-5.42-13.74-8.14-28.75-8.14-45.03v-52.9c0-33.09.18-52.35.54-57.78h-30.92v-51h32.01l1.63-104.71h80.84c0,54.98-.36,89.88-1.08,104.71h67.82v51h-67.82c.36,10.13.45,23.79.27,40.96-.19,17.18-.19,34.64,0,52.35.18,17.73.63,27.49,1.36,29.3,3.25,10.13,5.6,16.46,7.05,18.99,3.98,6.87,8.59,11.49,13.83,13.83,5.24,2.36,11.84,3.89,19.8,4.61,5.06,0,9.4-.72,13.02-2.17Z"/>
  </g>
</svg>